<?xml version="1.0" encoding="UTF-8" standalone="no"?><!-- Generator: Gravit.io --><svg xmlns="http://www.w3.org/2000/svg" xmlns:xlink="http://www.w3.org/1999/xlink" style="isolation:isolate" viewBox="0 0 200 200" width="200pt" height="200pt"><defs><clipPath id="_clipPath_28SiYccEWf6qCJjk4R2MSbMrBNRSOfgy"><rect width="200" height="200"/></clipPath></defs><g clip-path="url(#_clipPath_28SiYccEWf6qCJjk4R2MSbMrBNRSOfgy)"><text transform="matrix(1,0,0,1,24.297,186.377)" style="font-family:'Open Sans';font-weight:700;font-size:20px;font-style:normal;fill:#757575;stroke:none;">Unisec</text><path d="M 53.944 123 L 88.056 123 C 90.233 123 92 124.767 92 126.944 L 92 149.056 C 92 151.233 90.233 153 88.056 153 L 53.944 153 C 51.767 153 50 151.233 50 149.056 L 50 126.944 C 50 124.767 51.767 123 53.944 123 Z" style="stroke:none;fill:#0C13A4;stroke-miterlimit:10;"/><path d="M 89.864 94 L 120.136 94 C 122.82 94 125 96.18 125 98.864 L 125 148.136 C 125 150.82 122.82 153 120.136 153 L 89.864 153 C 87.18 153 85 150.82 85 148.136 L 85 98.864 C 85 96.18 87.18 94 89.864 94 Z" style="stroke:none;fill:#0C13A4;stroke-miterlimit:10;"/><path d="M 125.05 51 L 149.95 51 C 152.737 51 155 53.263 155 56.05 L 155 146.95 C 155 149.737 152.737 152 149.95 152 L 125.05 152 C 122.263 152 120 149.737 120 146.95 L 120 56.05 C 120 53.263 122.263 51 125.05 51 Z" style="stroke:none;fill:#21216C;stroke-miterlimit:10;"/><path d="M 125.05 51 L 149.95 51 C 152.737 51 155 53.263 155 56.05 L 155 146.95 C 155 149.737 152.737 152 149.95 152 L 125.05 152 C 122.263 152 120 149.737 120 146.95 L 120 56.05 C 120 53.263 122.263 51 125.05 51 Z" style="fill:none;stroke:#21216C;stroke-width:1;stroke-linecap:square;stroke-miterlimit:2;"/><text transform="matrix(1,0,0,1,103.5,184.727)" style="font-family:'Voltaire';font-weight:400;font-size:20px;font-style:normal;fill:#777777;stroke:none;">Analytics</text><rect x="119.5" y="142.5" width="35.9" height="10.5" transform="matrix(1,0,0,1,0,0)" fill="rgb(33,33,108)"/></g></svg>